<svg width="52" height="60" viewBox="0 0 52 60" fill="none" xmlns="http://www.w3.org/2000/svg">
<rect width="52" height="52" rx="26" fill="#FF98C8"/>
<path d="M34.2492 19.2104L35.4375 17.383L32.2258 15.1814C31.9796 15.0162 31.6798 14.9612 31.4015 15.0272C31.1124 15.0933 30.8662 15.2804 30.7163 15.5336L27.8151 20.4984H23.019C22.9012 19.3866 22.4409 18.3518 21.6594 17.5482C20.7494 16.6125 19.5397 16.0951 18.255 16.0951C16.9703 16.0951 15.7606 16.6125 14.8506 17.5482C13.9407 18.4839 13.4375 19.7278 13.4375 21.0488C13.4375 22.3698 13.9407 23.6138 14.8506 24.5495C15.6964 25.4192 16.8098 25.9035 17.9981 25.9696C18.1694 26.6521 18.4049 27.3016 18.7261 27.9071L18.6939 27.9621C18.6939 27.9621 18.7368 27.9841 18.7689 27.9951C20.0643 30.428 22.4302 32.1563 25.2244 32.5196V34.7983H22.0127V37H30.5772V34.7983H27.3655V32.5196C31.5835 31.9802 34.8594 28.2703 34.8594 23.7899V21.5883C34.8594 20.9828 34.3776 20.4874 33.7888 20.4874H30.3309L31.9903 17.6362L34.2706 19.1994L34.2492 19.2104ZM15.5679 21.0488C15.5679 20.3113 15.8463 19.6177 16.3494 19.1004C17.3665 18.0656 19.1222 18.0656 20.1392 19.1004C20.5139 19.4856 20.7708 19.97 20.8672 20.4984H18.7796C18.1908 20.4984 17.709 20.9938 17.709 21.5993V23.7459C17.1952 23.6358 16.7241 23.3826 16.3494 22.9973C15.8463 22.4799 15.5679 21.7864 15.5679 21.0488ZM26.2735 30.406C24.6677 30.406 23.201 29.7895 22.0769 28.7877C22.1626 28.7877 22.2375 28.7987 22.3231 28.7987C23.9076 28.7987 25.492 28.3584 26.8516 27.4887C28.3825 26.509 30.2881 26.2668 32.0117 26.7732C30.9519 28.9308 28.7893 30.406 26.2842 30.406H26.2735ZM32.6969 23.8009C32.6969 24.0982 32.6755 24.3844 32.6326 24.6706C30.3202 23.9881 27.7616 24.3073 25.7061 25.6173C24.111 26.6411 22.109 26.8723 20.3212 26.2778C20.0214 25.5072 19.8502 24.6816 19.8502 23.8009V22.7001H32.6969V23.8009Z" fill="#000232"/>
<path d="M25.134 58.5C25.5189 59.1667 26.4811 59.1667 26.866 58.5L31.1962 51C31.5811 50.3333 31.0999 49.5 30.3301 49.5H21.6699C20.9001 49.5 20.4189 50.3333 20.8038 51L25.134 58.5Z" fill="#FF98C8"/>
</svg>
