<svg width="52" height="60" viewBox="0 0 52 60" fill="none" xmlns="http://www.w3.org/2000/svg">
<rect width="52" height="52" rx="26" fill="#FFC146"/>
<path d="M30.2905 15.0112C28.4983 15.0112 26.8181 15.7053 25.5299 16.9817C24.2642 18.258 23.5697 19.9486 23.5697 21.7288C23.5697 21.9527 23.5809 22.1766 23.6033 22.3893L15.5272 31.973C14.7767 32.8687 14.8327 34.1674 15.6616 34.9959L17.0058 36.3394C17.4426 36.7761 18.0139 37 18.5852 37C19.1004 37 19.6045 36.8209 20.0301 36.4738L29.6184 28.4015C29.8312 28.4239 30.0552 28.4351 30.2793 28.4351C32.0715 28.4351 33.7516 27.741 35.0398 26.4646C36.3055 25.1883 37 23.4977 37 21.7176C37 19.9374 36.3055 18.2468 35.0286 16.9593C33.7516 15.6941 32.0603 15 30.2793 15L30.2905 15.0112ZM18.5964 34.7608L17.2522 33.4173L24.7682 24.5053L27.5237 27.2595L18.6076 34.772L18.5964 34.7608ZM29.5848 26.1511L25.866 22.4341C25.8324 22.2102 25.81 21.9751 25.81 21.7288C25.81 20.7211 26.1572 19.7807 26.7621 18.9969L33.0236 25.2555C32.2395 25.8601 31.2874 26.2071 30.2905 26.2071C30.044 26.2071 29.7976 26.1847 29.5848 26.1511ZM33.8188 24.4606L27.5573 18.202C28.3414 17.5975 29.2935 17.2504 30.2905 17.2504C31.489 17.2504 32.6091 17.7206 33.4604 18.5491C34.3005 19.4 34.771 20.5308 34.771 21.7288C34.771 22.7364 34.4237 23.6768 33.8188 24.4606Z" fill="#000232"/>
<path d="M25.134 58.5C25.5189 59.1667 26.4811 59.1667 26.866 58.5L31.1962 51C31.5811 50.3333 31.0999 49.5 30.3301 49.5H21.6699C20.9001 49.5 20.4189 50.3333 20.8038 51L25.134 58.5Z" fill="#FFC146"/>
</svg>
