<svg width="45" height="55" viewBox="0 0 45 55" fill="none" xmlns="http://www.w3.org/2000/svg">
<rect width="45" height="45" fill="#F06A52"/>
<path d="M13.5 22.5H31.5001C32.0501 22.5 32.5001 22.05 32.5001 21.5V19.5C32.5001 15.57 28.11 12.5 22.5 12.5C16.89 12.5 12.5 15.57 12.5 19.5V21.5C12.5 22.05 12.95 22.5 13.5 22.5ZM14.5 19.5C14.5 16.79 18.16 14.5 22.5 14.5C26.84 14.5 30.5001 16.79 30.5001 19.5V20.5H14.5V19.5Z" fill="#000232"/>
<path d="M12.5 23.5H32.5001V25.5H12.5V23.5Z" fill="#000232"/>
<path d="M15.5 32.5H29.5C31.1501 32.5 32.5001 31.15 32.5001 29.5V27.5C32.5001 26.95 32.0501 26.5 31.5001 26.5H22.5C22.23 26.5 21.98 26.61 21.79 26.79L19.5 29.08L17.21 26.79C17.02 26.6 16.77 26.5 16.5 26.5H13.5C12.95 26.5 12.5 26.95 12.5 27.5V29.5C12.5 31.15 13.85 32.5 15.5 32.5ZM22.91 28.5H30.5001V29.5C30.5001 30.05 30.0501 30.5 29.5 30.5H20.91L22.91 28.5ZM14.5 28.5H16.09L18.09 30.5H15.5C14.95 30.5 14.5 30.05 14.5 29.5V28.5Z" fill="#000232"/>
<path d="M25.5 16.5C25.2348 16.5 24.9804 16.6054 24.7929 16.7929C24.6054 16.9804 24.5 17.2348 24.5 17.5C24.5 17.7652 24.6054 18.0196 24.7929 18.2071C24.9804 18.3946 25.2348 18.5 25.5 18.5C25.7652 18.5 26.0196 18.3946 26.2071 18.2071C26.3946 18.0196 26.5 17.7652 26.5 17.5C26.5 17.2348 26.3946 16.9804 26.2071 16.7929C26.0196 16.6054 25.7652 16.5 25.5 16.5Z" fill="#000232"/>
<path d="M23 17.5C22.8674 17.5 22.7402 17.5527 22.6464 17.6464C22.5527 17.7402 22.5 17.8674 22.5 18C22.5 18.1326 22.5527 18.2598 22.6464 18.3536C22.7402 18.4473 22.8674 18.5 23 18.5C23.1326 18.5 23.2598 18.4473 23.3536 18.3536C23.4473 18.2598 23.5 18.1326 23.5 18C23.5 17.8674 23.4473 17.7402 23.3536 17.6464C23.2598 17.5527 23.1326 17.5 23 17.5Z" fill="#000232"/>
<path d="M28 18.5C27.8674 18.5 27.7402 18.5527 27.6464 18.6464C27.5527 18.7402 27.5 18.8674 27.5 19C27.5 19.1326 27.5527 19.2598 27.6464 19.3536C27.7402 19.4473 27.8674 19.5 28 19.5C28.1326 19.5 28.2598 19.4473 28.3536 19.3536C28.4473 19.2598 28.5 19.1326 28.5 19C28.5 18.8674 28.4473 18.7402 28.3536 18.6464C28.2598 18.5527 28.1326 18.5 28 18.5Z" fill="#000232"/>
<path d="M22 55L28.0622 44.5H15.9378L22 55Z" fill="#F06A52"/>
</svg>
