<svg width="52" height="60" viewBox="0 0 52 60" fill="none" xmlns="http://www.w3.org/2000/svg">
<rect width="52" height="52" rx="26" fill="#7DD0FF"/>
<path d="M31.5 15H20.5C17.464 15 15 18.212 15 22.15C15 26.088 17.464 29.3 20.5 29.3C21.743 29.3 22.876 28.761 23.8 27.859V35.9C23.8 36.505 24.295 37 24.9 37H35.9C36.505 37 37 36.505 37 35.9V22.15C37 18.212 34.536 15 31.5 15ZM20.5 27.1C18.707 27.1 17.2 24.834 17.2 22.15C17.2 19.466 18.707 17.2 20.5 17.2C22.293 17.2 23.8 19.466 23.8 22.15C23.8 24.834 22.293 27.1 20.5 27.1ZM34.8 34.8H26V22.15C26 20.225 25.406 18.487 24.46 17.2H31.5C33.293 17.2 34.8 19.466 34.8 22.15V34.8Z" fill="#000232"/>
<path d="M25.134 58.5C25.5189 59.1667 26.4811 59.1667 26.866 58.5L31.1962 51C31.5811 50.3333 31.0999 49.5 30.3301 49.5H21.6699C20.9001 49.5 20.4189 50.3333 20.8038 51L25.134 58.5Z" fill="#7DD0FF"/>
</svg>
