<svg width="45" height="55" viewBox="0 0 45 55" fill="none" xmlns="http://www.w3.org/2000/svg">
<rect width="45" height="45" fill="#FDB735"/>
<path d="M26.7905 11.5112C24.9983 11.5112 23.3181 12.2053 22.0299 13.4817C20.7642 14.758 20.0697 16.4486 20.0697 18.2288C20.0697 18.4527 20.0809 18.6766 20.1033 18.8893L12.0272 28.473C11.2767 29.3687 11.3327 30.6674 12.1616 31.4959L13.5058 32.8394C13.9426 33.2761 14.5139 33.5 15.0852 33.5C15.6004 33.5 16.1045 33.3209 16.5301 32.9738L26.1184 24.9015C26.3312 24.9239 26.5552 24.9351 26.7793 24.9351C28.5715 24.9351 30.2516 24.241 31.5398 22.9646C32.8055 21.6883 33.5 19.9977 33.5 18.2176C33.5 16.4374 32.8055 14.7468 31.5286 13.4593C30.2516 12.1941 28.5603 11.5 26.7793 11.5L26.7905 11.5112ZM15.0964 31.2608L13.7522 29.9173L21.2682 21.0053L24.0237 23.7595L15.1076 31.272L15.0964 31.2608ZM26.0848 22.6511L22.366 18.9341C22.3324 18.7102 22.31 18.4751 22.31 18.2288C22.31 17.2211 22.6572 16.2807 23.2621 15.4969L29.5236 21.7555C28.7395 22.3601 27.7874 22.7071 26.7905 22.7071C26.544 22.7071 26.2976 22.6847 26.0848 22.6511ZM30.3188 20.9606L24.0573 14.702C24.8414 14.0975 25.7935 13.7504 26.7905 13.7504C27.989 13.7504 29.1091 14.2206 29.9604 15.0491C30.8005 15.9 31.271 17.0308 31.271 18.2288C31.271 19.2364 30.9237 20.1768 30.3188 20.9606Z" fill="#000232"/>
<path d="M22 55L28.0622 44.5H15.9378L22 55Z" fill="#FDB735"/>
</svg>
