<svg width="52" height="60" viewBox="0 0 52 60" fill="none" xmlns="http://www.w3.org/2000/svg">
<rect width="52" height="52" rx="26" fill="#515FE0"/>
<path d="M36.45 21.6H35.9V19.4C35.9 16.969 33.931 15 31.5 15H20.5C18.069 15 16.1 16.969 16.1 19.4V21.6H15.55C15.242 21.6 15 21.842 15 22.15V25.45C15 25.758 15.242 26 15.55 26H16.1V32.6C16.1 33.414 16.551 34.118 17.2 34.492V36.45C17.2 36.758 17.442 37 17.75 37H19.95C20.258 37 20.5 36.758 20.5 36.45V34.8H31.5V36.45C31.5 36.758 31.742 37 32.05 37H34.25C34.558 37 34.8 36.758 34.8 36.45V34.492C35.449 34.107 35.9 33.414 35.9 32.6V26H36.45C36.758 26 37 25.758 37 25.45V22.15C37 21.842 36.758 21.6 36.45 21.6ZM33.7 32.6H18.3V27.1H33.7V32.6ZM18.3 24.9V21.6H24.9V24.9H18.3ZM27.1 24.9V21.6H33.7V24.9H27.1ZM20.5 17.2H31.5C32.71 17.2 33.7 18.19 33.7 19.4H18.3C18.3 18.19 19.29 17.2 20.5 17.2Z" fill="#000232"/>
<path d="M21.0499 28.2C20.6123 28.2 20.1926 28.3738 19.8832 28.6832C19.5737 28.9927 19.3999 29.4123 19.3999 29.85C19.3999 30.2876 19.5737 30.7072 19.8832 31.0167C20.1926 31.3261 20.6123 31.5 21.0499 31.5C21.4875 31.5 21.9072 31.3261 22.2166 31.0167C22.5261 30.7072 22.6999 30.2876 22.6999 29.85C22.6999 29.4123 22.5261 28.9927 22.2166 28.6832C21.9072 28.3738 21.4875 28.2 21.0499 28.2Z" fill="#000232"/>
<path d="M30.9498 28.2C30.5122 28.2 30.0925 28.3738 29.7831 28.6832C29.4736 28.9927 29.2998 29.4123 29.2998 29.85C29.2998 30.2876 29.4736 30.7072 29.7831 31.0167C30.0925 31.3261 30.5122 31.5 30.9498 31.5C31.3874 31.5 31.8071 31.3261 32.1165 31.0167C32.426 30.7072 32.5998 30.2876 32.5998 29.85C32.5998 29.4123 32.426 28.9927 32.1165 28.6832C31.8071 28.3738 31.3874 28.2 30.9498 28.2Z" fill="#000232"/>
<path d="M25.134 58.5C25.5189 59.1667 26.4811 59.1667 26.866 58.5L31.1962 51C31.5811 50.3333 31.0999 49.5 30.3301 49.5H21.6699C20.9001 49.5 20.4189 50.3333 20.8038 51L25.134 58.5Z" fill="#515FE0"/>
</svg>
