<svg width="45" height="55" viewBox="0 0 45 55" fill="none" xmlns="http://www.w3.org/2000/svg">
<rect width="45" height="45" fill="#85B8E6"/>
<path d="M28 11.5H17C13.964 11.5 11.5 14.712 11.5 18.65C11.5 22.588 13.964 25.8 17 25.8C18.243 25.8 19.376 25.261 20.3 24.359V32.4C20.3 33.005 20.795 33.5 21.4 33.5H32.4C33.005 33.5 33.5 33.005 33.5 32.4V18.65C33.5 14.712 31.036 11.5 28 11.5ZM17 23.6C15.207 23.6 13.7 21.334 13.7 18.65C13.7 15.966 15.207 13.7 17 13.7C18.793 13.7 20.3 15.966 20.3 18.65C20.3 21.334 18.793 23.6 17 23.6ZM31.3 31.3H22.5V18.65C22.5 16.725 21.906 14.987 20.96 13.7H28C29.793 13.7 31.3 15.966 31.3 18.65V31.3Z" fill="#000232"/>
<path d="M22 55L28.0622 44.5H15.9378L22 55Z" fill="#85B8E6"/>
</svg>
