<svg width="45" height="54" viewBox="0 0 45 54" fill="none" xmlns="http://www.w3.org/2000/svg">
<rect width="45" height="45" fill="#B5C423"/>
<path d="M32.95 18.1H32.4V15.9C32.4 13.469 30.431 11.5 28 11.5H17C14.569 11.5 12.6 13.469 12.6 15.9V18.1H12.05C11.742 18.1 11.5 18.342 11.5 18.65V21.95C11.5 22.258 11.742 22.5 12.05 22.5H12.6V29.1C12.6 29.914 13.051 30.618 13.7 30.992V32.95C13.7 33.258 13.942 33.5 14.25 33.5H16.45C16.758 33.5 17 33.258 17 32.95V31.3H28V32.95C28 33.258 28.242 33.5 28.55 33.5H30.75C31.058 33.5 31.3 33.258 31.3 32.95V30.992C31.949 30.607 32.4 29.914 32.4 29.1V22.5H32.95C33.258 22.5 33.5 22.258 33.5 21.95V18.65C33.5 18.342 33.258 18.1 32.95 18.1ZM30.2 29.1H14.8V23.6H30.2V29.1ZM14.8 21.4V18.1H21.4V21.4H14.8ZM23.6 21.4V18.1H30.2V21.4H23.6ZM17 13.7H28C29.21 13.7 30.2 14.69 30.2 15.9H14.8C14.8 14.69 15.79 13.7 17 13.7Z" fill="#000232"/>
<path d="M17.5499 24.7C17.1123 24.7 16.6926 24.8738 16.3832 25.1832C16.0737 25.4927 15.8999 25.9123 15.8999 26.35C15.8999 26.7876 16.0737 27.2072 16.3832 27.5167C16.6926 27.8261 17.1123 28 17.5499 28C17.9875 28 18.4072 27.8261 18.7166 27.5167C19.0261 27.2072 19.1999 26.7876 19.1999 26.35C19.1999 25.9123 19.0261 25.4927 18.7166 25.1832C18.4072 24.8738 17.9875 24.7 17.5499 24.7Z" fill="#000232"/>
<path d="M27.4498 24.7C27.0122 24.7 26.5925 24.8738 26.2831 25.1832C25.9736 25.4927 25.7998 25.9123 25.7998 26.35C25.7998 26.7876 25.9736 27.2072 26.2831 27.5167C26.5925 27.8261 27.0122 28 27.4498 28C27.8874 28 28.3071 27.8261 28.6165 27.5167C28.926 27.2072 29.0998 26.7876 29.0998 26.35C29.0998 25.9123 28.926 25.4927 28.6165 25.1832C28.3071 24.8738 27.8874 24.7 27.4498 24.7Z" fill="#000232"/>
<path d="M22 54L28.0622 43.5H15.9378L22 54Z" fill="#B5C423"/>
</svg>
