<svg width="45" height="55" viewBox="0 0 45 55" fill="none" xmlns="http://www.w3.org/2000/svg">
<rect width="45" height="45" fill="#ED5A36"/>
<path d="M32.4 17H30.86L29.1 15.24V12.6C29.1 11.995 28.605 11.5 28 11.5H26.9C25.316 11.5 23.875 12.358 23.105 13.7H19.2C14.954 13.7 11.5 17.154 11.5 21.4C11.5 21.675 11.522 28.308 13.821 32.895C14.008 33.269 14.393 33.5 14.8 33.5H19.2C19.805 33.5 20.3 33.005 20.3 32.4V29.1H22.5V32.4C22.5 33.005 22.995 33.5 23.6 33.5H28C28.363 33.5 28.715 33.313 28.913 33.005C30.607 30.464 31.201 27.384 31.41 25.8H32.4C33.005 25.8 33.5 25.305 33.5 24.7V18.1C33.5 17.495 33.005 17 32.4 17ZM31.3 23.6H30.409C29.826 23.6 29.342 24.062 29.309 24.645C29.309 24.689 29.1 28.363 27.384 31.3H24.689V28C24.689 27.395 24.194 26.9 23.589 26.9H19.189C18.584 26.9 18.089 27.395 18.089 28V31.3H15.493C13.722 27.197 13.689 21.455 13.689 21.4C13.689 18.364 16.153 15.9 19.189 15.9H23.787C24.249 15.9 24.667 15.603 24.821 15.163C25.129 14.283 25.965 13.7 26.878 13.7V15.691C26.878 15.988 26.999 16.263 27.197 16.472L29.606 18.881C29.815 19.09 30.09 19.2 30.387 19.2H31.278V23.6H31.3Z" fill="#000232"/>
<path d="M26.8998 19.2C26.6081 19.2 26.3283 19.3158 26.122 19.5221C25.9157 19.7284 25.7998 20.0082 25.7998 20.3C25.7998 20.5917 25.9157 20.8715 26.122 21.0778C26.3283 21.2841 26.6081 21.4 26.8998 21.4C27.1915 21.4 27.4713 21.2841 27.6776 21.0778C27.8839 20.8715 27.9998 20.5917 27.9998 20.3C27.9998 20.0082 27.8839 19.7284 27.6776 19.5221C27.4713 19.3158 27.1915 19.2 26.8998 19.2Z" fill="#000232"/>
<path d="M17 18.1H23.6V20.3H17V18.1Z" fill="#000232"/>
<path d="M22 55L28.0622 44.5H15.9378L22 55Z" fill="#ED5A36"/>
</svg>
