<svg width="45" height="55" viewBox="0 0 45 55" fill="none" xmlns="http://www.w3.org/2000/svg">
<rect width="45" height="45" fill="#F985C4"/>
<path d="M30.7492 15.7104L31.9375 13.883L28.7258 11.6814C28.4796 11.5162 28.1798 11.4612 27.9015 11.5272C27.6124 11.5933 27.3662 11.7804 27.2163 12.0336L24.3151 16.9984H19.519C19.4012 15.8866 18.9409 14.8518 18.1594 14.0482C17.2494 13.1125 16.0397 12.5951 14.755 12.5951C13.4703 12.5951 12.2606 13.1125 11.3506 14.0482C10.4407 14.9839 9.9375 16.2278 9.9375 17.5488C9.9375 18.8698 10.4407 20.1138 11.3506 21.0495C12.1964 21.9192 13.3098 22.4035 14.4981 22.4696C14.6694 23.1521 14.9049 23.8016 15.2261 24.4071L15.1939 24.4621C15.1939 24.4621 15.2368 24.4841 15.2689 24.4951C16.5643 26.928 18.9302 28.6563 21.7244 29.0196V31.2983H18.5127V33.5H27.0772V31.2983H23.8655V29.0196C28.0835 28.4802 31.3594 24.7703 31.3594 20.2899V18.0883C31.3594 17.4828 30.8776 16.9874 30.2888 16.9874H26.8309L28.4903 14.1362L30.7706 15.6994L30.7492 15.7104ZM12.0679 17.5488C12.0679 16.8113 12.3463 16.1177 12.8494 15.6004C13.8665 14.5656 15.6222 14.5656 16.6392 15.6004C17.0139 15.9856 17.2708 16.47 17.3672 16.9984H15.2796C14.6908 16.9984 14.209 17.4938 14.209 18.0993V20.2459C13.6952 20.1358 13.2241 19.8826 12.8494 19.4973C12.3463 18.9799 12.0679 18.2864 12.0679 17.5488ZM22.7735 26.906C21.1677 26.906 19.701 26.2895 18.5769 25.2877C18.6626 25.2877 18.7375 25.2987 18.8231 25.2987C20.4076 25.2987 21.992 24.8584 23.3516 23.9887C24.8825 23.009 26.7881 22.7668 28.5117 23.2732C27.4519 25.4308 25.2893 26.906 22.7842 26.906H22.7735ZM29.1969 20.3009C29.1969 20.5982 29.1755 20.8844 29.1326 21.1706C26.8202 20.4881 24.2616 20.8073 22.2061 22.1173C20.611 23.1411 18.609 23.3723 16.8212 22.7778C16.5214 22.0072 16.3502 21.1816 16.3502 20.3009V19.2001H29.1969V20.3009Z" fill="#000232"/>
<path d="M22 55L28.0622 44.5H15.9378L22 55Z" fill="#F985C4"/>
</svg>
