<svg width="52" height="60" viewBox="0 0 52 60" fill="none" xmlns="http://www.w3.org/2000/svg">
<rect width="52" height="52" rx="26" fill="#A188F9"/>
<path d="M35.4076 24.0691C35.0276 23.9091 34.6076 23.9991 34.3176 24.2891L34.0976 24.5091C33.6876 24.9191 33.2676 25.2291 32.8576 25.4391C31.1576 26.2891 29.1676 26.1491 27.6576 25.1091C28.7476 23.8691 29.2276 22.1891 28.9276 20.5091C28.5376 18.3291 26.8376 16.5691 24.6876 16.1191C23.0276 15.7791 21.3376 16.1791 20.0476 17.2291C18.8776 18.1791 18.1676 19.5491 18.0376 21.0391L18.0076 20.9991C18.0076 20.9991 17.0076 20.9991 16.0076 20.9991C16.0076 20.9991 16.0076 23.7191 18.6076 23.9691C18.7476 24.2391 18.9076 24.4991 19.0876 24.7491C17.0176 25.8991 15.8076 28.1691 16.0276 30.5691C16.3076 33.6091 19.0276 35.9991 22.2076 35.9991H28.3076C32.6876 35.9991 35.9976 32.9891 35.9976 28.9991V24.9991C35.9976 24.5991 35.7576 24.2291 35.3776 24.0791L35.4076 24.0691ZM34.0276 28.9891C34.0276 31.8891 31.6376 33.9891 28.3376 33.9891H22.2376C20.0776 33.9891 18.2376 32.3991 18.0476 30.3791C17.8876 28.6591 18.8376 27.0291 20.4176 26.3291C20.6976 26.2091 20.9776 26.0491 21.2976 25.8391C21.5676 25.6591 21.7376 25.3691 21.7476 25.0491C21.7576 24.7291 21.6176 24.4191 21.3676 24.2191C20.5176 23.5491 20.0276 22.5491 20.0276 21.4891C20.0276 20.4291 20.4976 19.4391 21.3176 18.7691C21.9476 18.2491 22.7176 17.9891 23.5176 17.9891C23.7676 17.9891 24.0276 18.0191 24.2876 18.0691C25.6276 18.3491 26.7276 19.4891 26.9676 20.8491C27.2076 22.1891 26.6676 23.5191 25.5676 24.3191C25.3276 24.4891 25.1776 24.7591 25.1576 25.0491C25.1376 25.3391 25.2376 25.6291 25.4476 25.8391L25.5476 25.9391C27.6976 28.0891 30.9976 28.6091 33.7576 27.2291C33.8476 27.1891 33.9376 27.1391 34.0276 27.0891V29.0091V28.9891Z" fill="#000232"/>
<path d="M23.0278 19.9891C22.7626 19.9891 22.5083 20.0945 22.3207 20.282C22.1332 20.4696 22.0278 20.7239 22.0278 20.9891C22.0278 21.2544 22.1332 21.5087 22.3207 21.6962C22.5083 21.8838 22.7626 21.9891 23.0278 21.9891C23.293 21.9891 23.5474 21.8838 23.7349 21.6962C23.9225 21.5087 24.0278 21.2544 24.0278 20.9891C24.0278 20.7239 23.9225 20.4696 23.7349 20.282C23.5474 20.0945 23.293 19.9891 23.0278 19.9891Z" fill="#000232"/>
<path d="M25.134 58.5C25.5189 59.1667 26.4811 59.1667 26.866 58.5L31.1962 51C31.5811 50.3333 31.0999 49.5 30.3301 49.5H21.6699C20.9001 49.5 20.4189 50.3333 20.8038 51L25.134 58.5Z" fill="#A188F9"/>
</svg>
