<svg width="52" height="60" viewBox="0 0 52 60" fill="none" xmlns="http://www.w3.org/2000/svg">
<rect width="52" height="52" rx="26" fill="#87D470"/>
<path d="M35.9 20.5H34.36L32.6 18.74V16.1C32.6 15.495 32.105 15 31.5 15H30.4C28.816 15 27.375 15.858 26.605 17.2H22.7C18.454 17.2 15 20.654 15 24.9C15 25.175 15.022 31.808 17.321 36.395C17.508 36.769 17.893 37 18.3 37H22.7C23.305 37 23.8 36.505 23.8 35.9V32.6H26V35.9C26 36.505 26.495 37 27.1 37H31.5C31.863 37 32.215 36.813 32.413 36.505C34.107 33.964 34.701 30.884 34.91 29.3H35.9C36.505 29.3 37 28.805 37 28.2V21.6C37 20.995 36.505 20.5 35.9 20.5ZM34.8 27.1H33.909C33.326 27.1 32.842 27.562 32.809 28.145C32.809 28.189 32.6 31.863 30.884 34.8H28.189V31.5C28.189 30.895 27.694 30.4 27.089 30.4H22.689C22.084 30.4 21.589 30.895 21.589 31.5V34.8H18.993C17.222 30.697 17.189 24.955 17.189 24.9C17.189 21.864 19.653 19.4 22.689 19.4H27.287C27.749 19.4 28.167 19.103 28.321 18.663C28.629 17.783 29.465 17.2 30.378 17.2V19.191C30.378 19.488 30.499 19.763 30.697 19.972L33.106 22.381C33.315 22.59 33.59 22.7 33.887 22.7H34.778V27.1H34.8Z" fill="#000232"/>
<path d="M30.3998 22.7C30.1081 22.7 29.8283 22.8158 29.622 23.0221C29.4157 23.2284 29.2998 23.5082 29.2998 23.8C29.2998 24.0917 29.4157 24.3715 29.622 24.5778C29.8283 24.7841 30.1081 24.9 30.3998 24.9C30.6915 24.9 30.9713 24.7841 31.1776 24.5778C31.3839 24.3715 31.4998 24.0917 31.4998 23.8C31.4998 23.5082 31.3839 23.2284 31.1776 23.0221C30.9713 22.8158 30.6915 22.7 30.3998 22.7Z" fill="#000232"/>
<path d="M20.5 21.6H27.1V23.8H20.5V21.6Z" fill="#000232"/>
<path d="M25.134 58.5C25.5189 59.1667 26.4811 59.1667 26.866 58.5L31.1962 51C31.5811 50.3333 31.0999 49.5 30.3301 49.5H21.6699C20.9001 49.5 20.4189 50.3333 20.8038 51L25.134 58.5Z" fill="#87D470"/>
</svg>
