<svg width="52" height="60" viewBox="0 0 52 60" fill="none" xmlns="http://www.w3.org/2000/svg">
<rect width="52" height="52" rx="26" fill="#F06A52"/>
<path d="M17 26H35.0001C35.5501 26 36.0001 25.55 36.0001 25V23C36.0001 19.07 31.61 16 26 16C20.39 16 16 19.07 16 23V25C16 25.55 16.45 26 17 26ZM18 23C18 20.29 21.66 18 26 18C30.34 18 34.0001 20.29 34.0001 23V24H18V23Z" fill="#000232"/>
<path d="M16 27H36.0001V29H16V27Z" fill="#000232"/>
<path d="M19 36H33C34.6501 36 36.0001 34.65 36.0001 33V31C36.0001 30.45 35.5501 30 35.0001 30H26C25.73 30 25.48 30.11 25.29 30.29L23 32.58L20.71 30.29C20.52 30.1 20.27 30 20 30H17C16.45 30 16 30.45 16 31V33C16 34.65 17.35 36 19 36ZM26.41 32H34.0001V33C34.0001 33.55 33.5501 34 33 34H24.41L26.41 32ZM18 32H19.59L21.59 34H19C18.45 34 18 33.55 18 33V32Z" fill="#000232"/>
<path d="M29 20C28.7348 20 28.4804 20.1054 28.2929 20.2929C28.1054 20.4804 28 20.7348 28 21C28 21.2652 28.1054 21.5196 28.2929 21.7071C28.4804 21.8946 28.7348 22 29 22C29.2652 22 29.5196 21.8946 29.7071 21.7071C29.8946 21.5196 30 21.2652 30 21C30 20.7348 29.8946 20.4804 29.7071 20.2929C29.5196 20.1054 29.2652 20 29 20Z" fill="#000232"/>
<path d="M26.5 21C26.3674 21 26.2402 21.0527 26.1464 21.1464C26.0527 21.2402 26 21.3674 26 21.5C26 21.6326 26.0527 21.7598 26.1464 21.8536C26.2402 21.9473 26.3674 22 26.5 22C26.6326 22 26.7598 21.9473 26.8536 21.8536C26.9473 21.7598 27 21.6326 27 21.5C27 21.3674 26.9473 21.2402 26.8536 21.1464C26.7598 21.0527 26.6326 21 26.5 21Z" fill="#000232"/>
<path d="M31.5 22C31.3674 22 31.2402 22.0527 31.1464 22.1464C31.0527 22.2402 31 22.3674 31 22.5C31 22.6326 31.0527 22.7598 31.1464 22.8536C31.2402 22.9473 31.3674 23 31.5 23C31.6326 23 31.7598 22.9473 31.8536 22.8536C31.9473 22.7598 32 22.6326 32 22.5C32 22.3674 31.9473 22.2402 31.8536 22.1464C31.7598 22.0527 31.6326 22 31.5 22Z" fill="#000232"/>
<path d="M25.134 58.5C25.5189 59.1667 26.4811 59.1667 26.866 58.5L31.1962 51C31.5811 50.3333 31.0999 49.5 30.3301 49.5H21.6699C20.9001 49.5 20.4189 50.3333 20.8038 51L25.134 58.5Z" fill="#F06A52"/>
</svg>
