<svg width="45" height="55" viewBox="0 0 45 55" fill="none" xmlns="http://www.w3.org/2000/svg">
<rect width="45" height="45" fill="#00AC58"/>
<path d="M31.9076 20.5691C31.5276 20.4091 31.1076 20.4991 30.8176 20.7891L30.5976 21.0091C30.1876 21.4191 29.7676 21.7291 29.3576 21.9391C27.6576 22.7891 25.6676 22.6491 24.1576 21.6091C25.2476 20.3691 25.7276 18.6891 25.4276 17.0091C25.0376 14.8291 23.3376 13.0691 21.1876 12.6191C19.5276 12.2791 17.8376 12.6791 16.5476 13.7291C15.3776 14.6791 14.6676 16.0491 14.5376 17.5391L14.5076 17.4991C14.5076 17.4991 13.5076 17.4991 12.5076 17.4991C12.5076 17.4991 12.5076 20.2191 15.1076 20.4691C15.2476 20.7391 15.4076 20.9991 15.5876 21.2491C13.5176 22.3991 12.3076 24.6691 12.5276 27.0691C12.8076 30.1091 15.5276 32.4991 18.7076 32.4991H24.8076C29.1876 32.4991 32.4976 29.4891 32.4976 25.4991V21.4991C32.4976 21.0991 32.2576 20.7291 31.8776 20.5791L31.9076 20.5691ZM30.5276 25.4891C30.5276 28.3891 28.1376 30.4891 24.8376 30.4891H18.7376C16.5776 30.4891 14.7376 28.8991 14.5476 26.8791C14.3876 25.1591 15.3376 23.5291 16.9176 22.8291C17.1976 22.7091 17.4776 22.5491 17.7976 22.3391C18.0676 22.1591 18.2376 21.8691 18.2476 21.5491C18.2576 21.2291 18.1176 20.9191 17.8676 20.7191C17.0176 20.0491 16.5276 19.0491 16.5276 17.9891C16.5276 16.9291 16.9976 15.9391 17.8176 15.2691C18.4476 14.7491 19.2176 14.4891 20.0176 14.4891C20.2676 14.4891 20.5276 14.5191 20.7876 14.5691C22.1276 14.8491 23.2276 15.9891 23.4676 17.3491C23.7076 18.6891 23.1676 20.0191 22.0676 20.8191C21.8276 20.9891 21.6776 21.2591 21.6576 21.5491C21.6376 21.8391 21.7376 22.1291 21.9476 22.3391L22.0476 22.4391C24.1976 24.5891 27.4976 25.1091 30.2576 23.7291C30.3476 23.6891 30.4376 23.6391 30.5276 23.5891V25.5091V25.4891Z" fill="#000232"/>
<path d="M19.5278 16.4891C19.2626 16.4891 19.0083 16.5945 18.8207 16.782C18.6332 16.9696 18.5278 17.2239 18.5278 17.4891C18.5278 17.7544 18.6332 18.0087 18.8207 18.1962C19.0083 18.3838 19.2626 18.4891 19.5278 18.4891C19.793 18.4891 20.0474 18.3838 20.2349 18.1962C20.4225 18.0087 20.5278 17.7544 20.5278 17.4891C20.5278 17.2239 20.4225 16.9696 20.2349 16.782C20.0474 16.5945 19.793 16.4891 19.5278 16.4891Z" fill="#000232"/>
<path d="M22 55L28.0622 44.5H15.9378L22 55Z" fill="#00AC58"/>
</svg>
